<?xml version="1.0" encoding="UTF-8" standalone="no"?>
<!-- Created with Inkscape (http://www.inkscape.org/) -->

<svg
   width="1280"
   height="640"
   viewBox="0 0 1280 640"
   version="1.1"
   id="svg5"
   xml:space="preserve"
   inkscape:export-filename="logo.png"
   inkscape:export-xdpi="48"
   inkscape:export-ydpi="48"
   inkscape:version="1.2.1 (9c6d41e4, 2022-07-14)"
   sodipodi:docname="logo.svg"
   xmlns:inkscape="http://www.inkscape.org/namespaces/inkscape"
   xmlns:sodipodi="http://sodipodi.sourceforge.net/DTD/sodipodi-0.dtd"
   xmlns:xlink="http://www.w3.org/1999/xlink"
   xmlns="http://www.w3.org/2000/svg"
   xmlns:svg="http://www.w3.org/2000/svg"><sodipodi:namedview
     id="namedview7"
     pagecolor="#ffffff"
     bordercolor="#666666"
     borderopacity="1.0"
     inkscape:showpageshadow="2"
     inkscape:pageopacity="0.0"
     inkscape:pagecheckerboard="0"
     inkscape:deskcolor="#d1d1d1"
     inkscape:document-units="px"
     showgrid="false"
     inkscape:zoom="0.78666666"
     inkscape:cx="530.72034"
     inkscape:cy="371.82204"
     inkscape:window-width="1920"
     inkscape:window-height="1027"
     inkscape:window-x="0"
     inkscape:window-y="25"
     inkscape:window-maximized="1"
     inkscape:current-layer="layer1" /><defs
     id="defs2"><path
       id="B"
       d="m 65.605,29.258 c -0.877,0.404 -1.722,0.875 -2.526,1.41 v 6.215 h -2.444 v -9.645 h 2.04 l 0.158,1.067 a 10.8,10.8 0 0 1 2.526,-1.263 z" /><path
       d="m 180.82764,252.60527 c 4.01631,1.56489 8.59642,1.46428 12.65058,-0.4861 l 52.50092,-25.26232 c 5.51645,-2.65463 9.02475,-8.23882 9.02475,-14.36389 V 41.197184 c 0,-6.125273 -3.5083,-11.708563 -9.02475,-14.363193 L 193.47822,1.5706855 c -5.32021,-2.55994221 -11.54689,-1.93291554 -16.21565,1.4616604 -0.6674,0.4849258 -1.30292,1.0263508 -1.89859,1.6230201 L 74.856589,96.349844 31.0778,63.118156 C 27.00242,60.02464 21.302087,60.27805 17.517072,63.7211 L 3.4757806,76.493707 c -4.6298048,4.211549 -4.6351141,11.495197 -0.011465,15.71352 L 41.430759,126.84453 3.4643154,161.48222 c -4.6236489,4.21852 -4.6183396,11.50207 0.011465,15.71362 l 14.0412916,12.77211 c 3.785015,3.44355 9.485348,3.69656 13.560728,0.60364 L 74.856589,157.3394 175.36398,249.03422 c 1.58979,1.59079 3.4565,2.78911 5.46366,3.57105 z m 10.46412,-183.649318 -76.2621,57.888578 76.2621,57.88887 z"
       id="path-1" /><linearGradient
       x1="127.17294"
       y1="0.00016458001"
       x2="127.17294"
       y2="254.3456"
       id="linearGradient-3"
       gradientTransform="scale(1.002588,0.99741863)"
       gradientUnits="userSpaceOnUse"><stop
         stop-color="#FFFFFF"
         offset="0%"
         id="stop18241" /><stop
         stop-color="#FFFFFF"
         stop-opacity="0"
         offset="100%"
         id="stop18243" /></linearGradient></defs><g
     inkscape:label="Layer 1"
     inkscape:groupmode="layer"
     id="layer1"><rect
       style="opacity:0.522091;fill:#e9c46a;fill-opacity:1;stroke-width:0.396742"
       id="rect8275"
       width="145.52805"
       height="337.80209"
       x="-677.86145"
       y="-676.57458"
       transform="matrix(-1,0,-0.30968202,-0.95084018,0,0)" /><rect
       style="opacity:0.522091;fill:#8a757d;fill-opacity:1;stroke-width:0.396742"
       id="rect8283"
       width="145.52805"
       height="337.80209"
       x="-677.86145"
       y="-338.7724"
       transform="matrix(-1,0,-0.30968202,-0.95084018,0,0)" /><rect
       style="opacity:0.522091;fill:#efb366;fill-opacity:1;stroke-width:0.396626"
       id="rect841"
       width="145.52805"
       height="337.60532"
       x="-829.84961"
       y="-338.57507"
       transform="matrix(-1,0,-0.30797519,-0.95139439,0,0)" /><rect
       style="opacity:0.522091;fill:#f4a261;fill-opacity:1;stroke-width:0.396626"
       id="rect8279"
       width="145.52805"
       height="337.60532"
       x="-829.84961"
       y="-676.18036"
       transform="matrix(-1,0,-0.30797519,-0.95139439,0,0)" /><g
       id="g13751"
       transform="matrix(0.33501604,0,0,0.34542956,480.36848,140.80926)"><circle
         cx="512"
         cy="512"
         r="512"
         style="fill:#0091e2"
         id="circle13739" /><path
         d="m 827.3,461.5 c -1.6,-1.3 -16.1,-12.2 -46.7,-12.2 -8.1,0 -16.2,0.6 -24.2,2.1 -5.9,-40.7 -39.5,-60.5 -41,-61.4 l -8.2,-4.8 -5.4,7.8 c -6.8,10.5 -11.7,22 -14.6,34.2 -5.5,23.2 -2.2,45 9.6,63.6 -14.2,7.9 -37.1,9.9 -41.7,10 H 277 c -9.9,0 -17.9,8 -17.9,17.9 -0.4,33.1 5.2,66 16.5,97.1 13,34.2 32.4,59.3 57.6,74.7 28.2,17.3 74.1,27.2 126.2,27.2 23.5,0.1 47,-2.1 70.1,-6.4 32.1,-5.9 63,-17.1 91.4,-33.2 23.4,-13.6 44.5,-30.8 62.4,-51.1 29.9,-33.9 47.8,-71.7 61.1,-105.2 h 5.3 c 32.8,0 53,-13.1 64.1,-24.1 7.4,-7 13.2,-15.5 16.9,-25 l 2.3,-6.9 z M 312,489.9 h 50.7 c 2.4,0 4.4,-2 4.4,-4.4 v -45.1 c 0,-2.4 -2,-4.4 -4.4,-4.5 H 312 c -2.4,0 -4.4,2 -4.4,4.4 v 45.2 c 0,2.5 2,4.4 4.4,4.4 m 69.9,0 h 50.7 c 2.4,0 4.4,-2 4.4,-4.4 v -45.1 c 0,-2.4 -2,-4.4 -4.4,-4.5 h -50.7 c -2.5,0 -4.5,2 -4.5,4.5 v 45.1 c 0,2.5 2,4.4 4.5,4.4 m 70.8,0.1 h 50.7 c 2.4,0 4.4,-2 4.4,-4.4 v -45.1 c 0,-2.4 -2,-4.4 -4.4,-4.5 h -50.7 c -2.4,0 -4.4,2 -4.4,4.4 v 45.2 c 0,2.4 2,4.3 4.4,4.4 m 70.1,0 h 50.7 c 2.4,0 4.4,-2 4.5,-4.4 v -45.1 c 0,-2.5 -2,-4.5 -4.5,-4.5 h -50.7 c -2.4,0 -4.4,2 -4.4,4.4 v 45.2 c 0,2.4 1.9,4.4 4.4,4.4 m -141,-65 h 50.7 c 2.4,0 4.4,-2 4.4,-4.5 v -45.1 c 0,-2.4 -2,-4.4 -4.4,-4.4 h -50.7 c -2.5,0 -4.4,2 -4.5,4.4 v 45.1 c 0.1,2.5 2.1,4.5 4.5,4.5 m 70.9,0 h 50.7 c 2.4,0 4.4,-2 4.4,-4.5 v -45.1 c 0,-2.4 -2,-4.4 -4.4,-4.4 h -50.7 c -2.4,0 -4.4,2 -4.4,4.4 v 45.1 c 0,2.5 2,4.5 4.4,4.5 m 70.1,0 h 50.7 c 2.5,0 4.4,-2 4.5,-4.5 v -45.1 c 0,-2.5 -2,-4.4 -4.5,-4.4 h -50.7 c -2.4,0 -4.4,2 -4.4,4.4 v 45.1 c 0,2.5 1.9,4.5 4.4,4.5 m 0,-64.9 h 50.7 c 2.5,0 4.5,-2 4.5,-4.5 v -45.2 c 0,-2.4 -2,-4.4 -4.5,-4.4 h -50.7 c -2.4,0 -4.4,2 -4.4,4.4 v 45.2 c 0,2.5 1.9,4.5 4.4,4.5 M 593.4,490 h 50.7 c 2.4,0 4.4,-2 4.4,-4.4 v -45.1 c 0,-2.5 -2,-4.4 -4.4,-4.5 h -50.7 c -2.4,0 -4.4,2 -4.4,4.4 v 45.2 c 0,2.4 2,4.4 4.4,4.4"
         style="fill:#ffffff"
         id="path13741" /></g><path
       id="path8290-9"
       style="fill:#e76f51;fill-opacity:1;stroke-width:0.386866"
       d="M 896.98601,-0.21210795 1001.5985,320.98369 l 104.6096,321.1958 h 145.528 L 1147.1265,320.98369 1042.514,-0.21210795 Z" /><g
       transform="matrix(4.4550348,0,0,4.5935135,877.93951,429.26562)"
       class="C"
       id="g16719"><path
         d="m 39.1,15.557 v -24.43 l -21.16,-12.22 v 24.43 z m 0,-27.1 -21.16,-12.22 v -24.44 l 21.16,12.22 z"
         fill="#5c4ee5"
         id="path16707" /><path
         d="m 62.6,-23.773 v -24.44 l -21.17,12.22 v 24.44 z"
         fill="#4040b2"
         id="path16709" /><g
         fill="#5c4ee5"
         id="g16717"><path
           d="m 15.62,-25.193 v -24.44 l -21.16,-12.22 v 24.44 z"
           id="path16711" /><path
           d="M 53.64,-0.483"
           id="path16713" /><path
           d="M 17.94,-21.093"
           id="path16715" /></g></g><rect
       style="opacity:0.522091;fill:#264653;fill-opacity:1;fill-rule:nonzero;stroke-width:0.396626"
       id="rect841-3"
       width="145.52805"
       height="337.60532"
       x="-223.8889"
       y="-339.39832"
       transform="matrix(-1,0,-0.30797519,-0.95139439,0,0)" /><rect
       style="opacity:0.522091;fill:#287271;fill-opacity:1;stroke:#ffffff;stroke-width:0.396626;stroke-opacity:1"
       id="rect8279-8"
       width="145.52805"
       height="337.60532"
       x="-223.8889"
       y="-677.00342"
       transform="matrix(-1,0,-0.30797519,-0.95139439,0,0)" /><path
       id="path8290"
       style="fill:#2a9d8f;fill-opacity:1;stroke-width:0.386866"
       d="M 224.11387,0.92430771 328.72636,322.12009 433.33601,643.31589 H 578.86403 L 474.25441,322.12009 369.64191,0.92430771 Z" /><g
       id="g18261"
       transform="matrix(1.3525738,0,0,1.3946168,105.58116,140.7692)"><mask
         id="mask-2"
         fill="#ffffff"><use
           xlink:href="#path-1"
           id="use18248" /></mask><g
         id="g18251" /><path
         d="M 246.13478,26.873337 193.59302,1.5752377 c -6.08124,-2.9282435 -13.34985,-1.69304551 -18.1232,3.0799091 L 3.4664172,161.48222 c -4.6264579,4.21852 -4.6211387,11.50207 0.011475,15.71362 L 17.52768,189.96795 c 3.787406,3.44355 9.491225,3.69656 13.568996,0.60364 L 238.22867,33.436301 c 6.94885,-5.271608 16.92986,-0.315369 16.92986,8.40696 v -0.610017 c 0,-6.122584 -3.50729,-11.703882 -9.02375,-14.359907 z"
         fill="#0065a9"
         fill-rule="nonzero"
         mask="url(#mask-2)"
         id="path18253" /><path
         d="m 246.13478,226.81601 -52.54176,25.29818 c -6.08124,2.92756 -13.34985,1.69239 -18.1232,-3.07997 L 3.4664172,92.207027 C -1.1600407,87.988805 -1.1547215,80.704957 3.4778923,76.493508 L 17.52768,63.720901 c 3.787406,-3.44305 9.491225,-3.69656 13.568996,-0.602945 L 238.22867,220.25265 c 6.94885,5.27141 16.92986,0.31577 16.92986,-8.40716 v 0.61061 c 0,6.12209 -3.50729,11.70329 -9.02375,14.35991 z"
         fill="#007acc"
         fill-rule="nonzero"
         mask="url(#mask-2)"
         id="path18255" /><path
         d="m 193.42832,252.1345 c -6.08323,2.92557 -13.35184,1.6894 -18.1252,-3.08396 5.88103,5.88103 15.93775,1.7153 15.93775,-6.60221 V 11.272962 c 0,-8.3175393 -10.05672,-12.4830129 -15.93775,-6.6016022 4.77336,-4.77339791 12.04197,-6.0103391 18.1252,-3.0846805 l 52.5328,25.2633347 c 5.52043,2.654631 9.03072,8.237921 9.03072,14.363194 V 212.50928 c 0,6.12508 -3.51029,11.70827 -9.03072,14.3629 z"
         fill="#1f9cf0"
         fill-rule="nonzero"
         mask="url(#mask-2)"
         id="path18257" /><path
         d="m 180.82789,252.60527 c 4.01631,1.56389 8.59642,1.46428 12.64959,-0.4861 l 52.50091,-25.26332 c 5.51745,-2.65463 9.02575,-8.23782 9.02575,-14.36289 V 41.196985 c 0,-6.125273 -3.5083,-11.708563 -9.02475,-14.363194 L 193.47748,1.5705261 c -5.31923,-2.55994916 -11.5459,-1.93292249 -16.21566,1.4616505 -0.6664,0.4849257 -1.30192,1.0263508 -1.89859,1.62302 L 74.856539,96.349645 31.07775,63.117956 C 27.002469,60.02444 21.302037,60.27795 17.517022,63.720901 L 3.4757806,76.493508 c -4.6298048,4.211549 -4.6351141,11.495297 -0.011465,15.713619 L 41.430809,126.84453 3.4643154,161.48222 c -4.6236489,4.21852 -4.6183396,11.50207 0.011465,15.71362 l 14.0412416,12.77211 c 3.785015,3.44355 9.485447,3.69656 13.560728,0.60364 L 74.856539,157.3394 175.36323,249.03422 c 1.58979,1.59079 3.4575,2.78911 5.46466,3.57105 z m 10.46412,-183.649517 -76.2621,57.888777 76.2621,57.88887 z"
         fill-opacity="0.25"
         fill="url(#linearGradient-3)"
         mask="url(#mask-2)"
         id="path18259"
         style="fill:url(#linearGradient-3)" /></g><path
       id="rect8285"
       style="fill:#ffffff;stroke-width:0.386866"
       d="M 381.28416,0.92430877 485.89665,322.12009 590.50631,643.31585 h 5.17849 L 491.07515,322.12009 386.46265,0.92430877 Z"
       sodipodi:nodetypes="ccccccc" /><path
       id="rect8285-4"
       style="fill:#ffffff;stroke-width:0.386866"
       d="M 678.84689,-0.21208559 783.45937,320.98368 888.06903,642.17945 h 5.1785 L 788.63786,320.98368 684.02538,-0.21208559 Z"
       sodipodi:nodetypes="ccccccc" /></g><style
     id="style5576"><![CDATA[.C{fill-rule:evenodd}]]></style><style
     id="style16705"><![CDATA[.C{fill-rule:evenodd}]]></style></svg>
